#define clock_width 6
#define clock_height 8
static unsigned char clock_bits[] = {
   0x00, 0x00, 0x1e, 0x3b, 0x3b, 0x23, 0x3f, 0x1e };
