#define cpu_width 8
#define cpu_height 10
static unsigned char cpu_bits[] = {
   0x00, 0x00, 0xdb, 0x81, 0x3c, 0xbd, 0xbd, 0x3c, 0x81, 0xdb };
