#define diskette_width 8
#define diskette_height 10
static unsigned char diskette_bits[] = {
   0x00, 0x00, 0xff, 0x81, 0x81, 0x81, 0xbd, 0xb5, 0xb5, 0xfe };
