#define dwm_width 23
#define dwm_height 9
static unsigned char dwm_bits[] = {
   0x40, 0x00, 0x00, 0x40, 0x00, 0x00, 0x40, 0x00, 0x00, 0x7f, 0xc4, 0x7f,
   0x41, 0x44, 0x44, 0x41, 0x44, 0x44, 0x41, 0x44, 0x44, 0x41, 0x44, 0x44,
   0xff, 0x7f, 0x44 };
