#define mem_width 8
#define mem_height 10
static unsigned char mem_bits[] = {
   0x00, 0x00, 0xaa, 0x00, 0xfe, 0xfe, 0xfe, 0xfe, 0x00, 0xaa };
