#define net_down_03_width 7
#define net_down_03_height 10
static unsigned char net_down_03_bits[] = {
   0x00, 0x00, 0x1c, 0x1c, 0x1c, 0x1c, 0x7f, 0x3e, 0x1c, 0x08 };
