#define temp_width 8
#define temp_height 10
static unsigned char temp_bits[] = {
   0x00, 0x00, 0xc8, 0xe0, 0x72, 0x28, 0x16, 0x09, 0x09, 0x06 };
